<svg width="36" height="36" viewBox="0 0 36 36" fill="none" xmlns="http://www.w3.org/2000/svg">
<g opacity="0.7" filter="url(#filter0_i_2316_28845)">
<circle cx="18" cy="18" r="18" fill="#FFCF53"/>
</g>
<path d="M22.5062 24.0312L23.0312 23.5062L21.625 22.1V20H20.875V22.4L22.5062 24.0312ZM21.25 26C20.2125 26 19.3282 25.6342 18.5972 24.9027C17.8662 24.1712 17.5005 23.287 17.5 22.25C17.4995 21.213 17.8652 20.3287 18.5972 19.5972C19.3292 18.8657 20.2135 18.5 21.25 18.5C22.2865 18.5 23.171 18.8657 23.9035 19.5972C24.636 20.3287 25.0015 21.213 25 22.25C24.9985 23.287 24.6327 24.1715 23.9027 24.9035C23.1727 25.6355 22.2885 26.001 21.25 26ZM13 15.5H20.5V14H13V15.5ZM16.5062 24.5H11.5C11.0875 24.5 10.7345 24.3532 10.441 24.0597C10.1475 23.7662 10.0005 23.413 10 23V12.5C10 12.0875 10.147 11.7345 10.441 11.441C10.735 11.1475 11.088 11.0005 11.5 11H22C22.4125 11 22.7657 11.147 23.0597 11.441C23.3537 11.735 23.5005 12.088 23.5 12.5V17.525C23.1375 17.35 22.7717 17.2187 22.4027 17.1312C22.0337 17.0437 21.6495 17 21.25 17C21.1125 17 20.9842 17.003 20.8652 17.009C20.7462 17.015 20.6245 17.0307 20.5 17.0562V17H13V18.5H17.5937C17.3687 18.7125 17.1657 18.9437 16.9847 19.1937C16.8037 19.4437 16.6442 19.7125 16.5062 20H13V21.5H16.0562C16.0312 21.625 16.0157 21.747 16.0097 21.866C16.0037 21.985 16.0005 22.113 16 22.25C16 22.6625 16.0375 23.047 16.1125 23.4035C16.1875 23.76 16.3187 24.1255 16.5062 24.5Z" fill="#9F8B55"/>
<defs>
<filter id="filter0_i_2316_28845" x="0" y="0" width="36" height="36" filterUnits="userSpaceOnUse" color-interpolation-filters="sRGB">
<feFlood flood-opacity="0" result="BackgroundImageFix"/>
<feBlend mode="normal" in="SourceGraphic" in2="BackgroundImageFix" result="shape"/>
<feColorMatrix in="SourceAlpha" type="matrix" values="0 0 0 0 0 0 0 0 0 0 0 0 0 0 0 0 0 0 127 0" result="hardAlpha"/>
<feOffset/>
<feGaussianBlur stdDeviation="3.675"/>
<feComposite in2="hardAlpha" operator="arithmetic" k2="-1" k3="1"/>
<feColorMatrix type="matrix" values="0 0 0 0 0 0 0 0 0 0 0 0 0 0 0 0 0 0 0.25 0"/>
<feBlend mode="normal" in2="shape" result="effect1_innerShadow_2316_28845"/>
</filter>
</defs>
</svg>
