<svg width="36" height="36" viewBox="0 0 36 36" fill="none" xmlns="http://www.w3.org/2000/svg">
<g opacity="0.7" filter="url(#filter0_i_2316_28858)">
<circle cx="18" cy="18" r="18" fill="#A187EB"/>
</g>
<path d="M18 24.75C16.275 24.75 14.772 24.1782 13.491 23.0347C12.21 21.8912 11.4755 20.463 11.2875 18.75H12.825C13 20.05 13.5782 21.125 14.5598 21.975C15.5413 22.825 16.688 23.25 18 23.25C19.4625 23.25 20.7032 22.7407 21.7222 21.7222C22.7412 20.7037 23.2505 19.463 23.25 18C23.2495 16.537 22.7402 15.2965 21.7222 14.2785C20.7042 13.2605 19.4635 12.751 18 12.75C17.1375 12.75 16.3312 12.95 15.5812 13.35C14.8312 13.75 14.2 14.3 13.6875 15H15.75V16.5H11.25V12H12.75V13.7625C13.3875 12.9625 14.1658 12.3438 15.0847 11.9062C16.0037 11.4688 16.9755 11.25 18 11.25C18.9375 11.25 19.8158 11.4283 20.6347 11.7848C21.4537 12.1413 22.1663 12.6223 22.7723 13.2278C23.3783 13.8333 23.8595 14.5458 24.216 15.3653C24.5725 16.1848 24.7505 17.063 24.75 18C24.7495 18.937 24.5715 19.8152 24.216 20.6347C23.8605 21.4542 23.3793 22.1668 22.7723 22.7723C22.1653 23.3778 21.4527 23.859 20.6347 24.216C19.8167 24.573 18.9385 24.751 18 24.75ZM20.1 21.15L17.25 18.3V14.25H18.75V17.7L21.15 20.1L20.1 21.15Z" fill="#745CB9"/>
<defs>
<filter id="filter0_i_2316_28858" x="0" y="0" width="36" height="36" filterUnits="userSpaceOnUse" color-interpolation-filters="sRGB">
<feFlood flood-opacity="0" result="BackgroundImageFix"/>
<feBlend mode="normal" in="SourceGraphic" in2="BackgroundImageFix" result="shape"/>
<feColorMatrix in="SourceAlpha" type="matrix" values="0 0 0 0 0 0 0 0 0 0 0 0 0 0 0 0 0 0 127 0" result="hardAlpha"/>
<feOffset/>
<feGaussianBlur stdDeviation="3.675"/>
<feComposite in2="hardAlpha" operator="arithmetic" k2="-1" k3="1"/>
<feColorMatrix type="matrix" values="0 0 0 0 0 0 0 0 0 0 0 0 0 0 0 0 0 0 0.25 0"/>
<feBlend mode="normal" in2="shape" result="effect1_innerShadow_2316_28858"/>
</filter>
</defs>
</svg>
