<svg width="28" height="26" viewBox="0 0 28 26" fill="none" xmlns="http://www.w3.org/2000/svg">
<path d="M27.3333 15.9705V21.9998C27.3333 23.0607 26.9119 24.0781 26.1618 24.8283C25.4116 25.5784 24.3942 25.9998 23.3333 25.9998H4.66667C3.6058 25.9998 2.58839 25.5784 1.83824 24.8283C1.0881 24.0781 0.666668 23.0607 0.666668 21.9998V15.9705L1.404 16.3398C5.3119 18.3081 9.62672 19.3332 14.0023 19.3327C18.3779 19.3322 22.6925 18.3063 26.6 16.3372L27.3333 15.9705ZM16.6667 0.666504C17.7275 0.666504 18.7449 1.08793 19.4951 1.83808C20.2452 2.58822 20.6667 3.60564 20.6667 4.6665V5.99984H23.3333C24.3942 5.99984 25.4116 6.42127 26.1618 7.17141C26.9119 7.92156 27.3333 8.93897 27.3333 9.99984V12.9892L25.404 13.9545C21.952 15.6946 18.1476 16.6217 14.2821 16.6647C10.4166 16.7077 6.59247 15.8655 3.10267 14.2025L2.24 13.7758L0.666668 12.9892V9.99984C0.666668 8.93897 1.0881 7.92156 1.83824 7.17141C2.58839 6.42127 3.6058 5.99984 4.66667 5.99984H7.33333V4.6665C7.33333 3.60564 7.75476 2.58822 8.50491 1.83808C9.25505 1.08793 10.2725 0.666504 11.3333 0.666504H16.6667ZM14 11.3332C13.6464 11.3332 13.3072 11.4736 13.0572 11.7237C12.8071 11.9737 12.6667 12.3129 12.6667 12.6665C12.6658 12.8416 12.6994 13.0152 12.7656 13.1773C12.8318 13.3394 12.9293 13.4868 13.0525 13.6113C13.1757 13.7357 13.3222 13.8346 13.4836 13.9025C13.645 13.9703 13.8182 14.0056 13.9933 14.0065C14.1684 14.0074 14.342 13.9738 14.5041 13.9076C14.6662 13.8414 14.8137 13.7439 14.9381 13.6207C15.0625 13.4975 15.1615 13.351 15.2293 13.1896C15.2971 13.0281 15.3325 12.8549 15.3333 12.6798C15.3333 11.9305 14.736 11.3332 14 11.3332ZM16.6667 3.33317H11.3333C10.9797 3.33317 10.6406 3.47365 10.3905 3.7237C10.1405 3.97374 10 4.31288 10 4.6665V5.99984H18V4.6665C18 4.31288 17.8595 3.97374 17.6095 3.7237C17.3594 3.47365 17.0203 3.33317 16.6667 3.33317Z" fill="#022F8E"/>
</svg>
