<svg width="30" height="30" viewBox="0 0 30 30" fill="none" xmlns="http://www.w3.org/2000/svg">
<path d="M15 28.3332C22.3638 28.3332 28.3333 22.3636 28.3333 14.9998C28.3333 7.63604 22.3638 1.6665 15 1.6665C7.63619 1.6665 1.66666 7.63604 1.66666 14.9998C1.66666 22.3636 7.63619 28.3332 15 28.3332Z" fill="#022F8E"/>
<path d="M15 6.99984V14.9998L20.3333 17.6665" fill="#022F8E"/>
<path d="M15 6.99984V14.9998L20.3333 17.6665M28.3333 14.9998C28.3333 22.3636 22.3638 28.3332 15 28.3332C7.63619 28.3332 1.66666 22.3636 1.66666 14.9998C1.66666 7.63604 7.63619 1.6665 15 1.6665C22.3638 1.6665 28.3333 7.63604 28.3333 14.9998Z" stroke="white" stroke-width="2" stroke-linecap="round" stroke-linejoin="round"/>
</svg>
