<svg width="20" height="25" viewBox="0 0 20 25" fill="none" xmlns="http://www.w3.org/2000/svg">
<path d="M7.33332 5.99984C7.33332 5.64622 7.4738 5.30708 7.72385 5.05703C7.97389 4.80698 8.31303 4.6665 8.66665 4.6665C9.02028 4.6665 9.35942 4.80698 9.60946 5.05703C9.85951 5.30708 9.99999 5.64622 9.99999 5.99984V11.9598L11.6133 12.1332L18.2 15.0532C18.9067 15.3732 19.3333 16.0798 19.3333 16.8532V22.6665C19.2933 23.7598 18.4267 24.6265 17.3333 24.6665H8.66665C8.15999 24.6665 7.67999 24.4665 7.33332 24.0932L0.799988 18.4932L1.78665 17.4665C2.03999 17.1865 2.39999 17.0398 2.77332 17.0398H3.06665L7.33332 19.3332V5.99984ZM8.66665 0.666504C10.0811 0.666504 11.4377 1.22841 12.4379 2.2286C13.4381 3.22879 14 4.58535 14 5.99984C14 7.99984 12.9333 9.69317 11.3333 10.6132V8.9865C12.1467 8.25317 12.6667 7.1865 12.6667 5.99984C12.6667 4.93897 12.2452 3.92156 11.4951 3.17141C10.7449 2.42126 9.72752 1.99984 8.66665 1.99984C7.60579 1.99984 6.58837 2.42126 5.83823 3.17141C5.08808 3.92156 4.66665 4.93897 4.66665 5.99984C4.66665 7.1865 5.18665 8.25317 5.99999 8.9865V10.6132C4.39999 9.69317 3.33332 7.99984 3.33332 5.99984C3.33332 4.58535 3.89522 3.22879 4.89542 2.2286C5.89561 1.22841 7.25217 0.666504 8.66665 0.666504Z" fill="#022F8E"/>
</svg>
