<svg width="48" height="16" viewBox="0 0 48 16" fill="none" xmlns="http://www.w3.org/2000/svg">
<path d="M44.444 15.296L43.994 13.046H38.966L38.166 15.28L34.136 15.288C36.7267 9.06267 38.6493 4.45133 39.904 1.454C40.232 0.67 40.814 0.270001 41.672 0.276001C42.328 0.281334 43.3987 0.282 44.884 0.278L48 15.29L44.444 15.296ZM40.096 9.964H43.338L42.128 4.324L40.096 9.964ZM14.124 0.274L18.176 0.278L11.912 15.298L7.81 15.294C6.7785 11.3266 5.75983 7.35595 4.754 3.382C4.554 2.59 4.158 2.036 3.396 1.774C2.71467 1.54067 1.58267 1.18 0 0.691999V0.278H6.474C7.594 0.278 8.248 0.820001 8.458 1.932C8.67 3.04667 9.20333 5.88267 10.058 10.44L14.124 0.274ZM23.744 0.278L20.542 15.296L16.684 15.29L19.88 0.274L23.744 0.278ZM31.564 0C32.718 0 34.172 0.359999 35.008 0.691999L34.332 3.804C33.576 3.5 32.332 3.09 31.286 3.104C29.766 3.13 28.826 3.768 28.826 4.38C28.826 5.376 30.458 5.878 32.138 6.966C34.054 8.206 34.308 9.32 34.284 10.532C34.258 13.042 32.138 15.52 27.666 15.52C25.626 15.49 24.89 15.32 23.226 14.728L23.93 11.48C25.624 12.188 26.342 12.414 27.79 12.414C29.116 12.414 30.254 11.878 30.264 10.944C30.272 10.28 29.864 9.95 28.376 9.13C26.888 8.31 24.8 7.172 24.828 4.886C24.862 1.962 27.632 0 31.564 0Z" fill="#F4F4F4"/>
</svg>
