<svg width="34" height="31" viewBox="0 0 34 31" fill="none" xmlns="http://www.w3.org/2000/svg">
<path d="M27 0.5H1C0.446875 0.5 0 0.946875 0 1.5V21.5C0 22.0531 0.446875 22.5 1 22.5H27C27.5531 22.5 28 22.0531 28 21.5V1.5C28 0.946875 27.5531 0.5 27 0.5ZM25.75 20.25H2.25V19.0031L6.57812 13.8687L11.2688 19.4312L18.5656 10.7812L25.75 19.3V20.25ZM25.75 16.1938L18.7563 7.9C18.6562 7.78125 18.475 7.78125 18.375 7.9L11.2688 16.325L6.76875 10.9906C6.66875 10.8719 6.4875 10.8719 6.3875 10.9906L2.25 15.8969V2.75H25.75V16.1938ZM7.5 9.75C7.86114 9.75 8.21873 9.67887 8.55238 9.54067C8.88603 9.40247 9.18918 9.19991 9.44454 8.94454C9.69991 8.68918 9.90247 8.38602 10.0407 8.05238C10.1789 7.71873 10.25 7.36114 10.25 7C10.25 6.63886 10.1789 6.28127 10.0407 5.94762C9.90247 5.61398 9.69991 5.31082 9.44454 5.05546C9.18918 4.8001 8.88603 4.59753 8.55238 4.45933C8.21873 4.32113 7.86114 4.25 7.5 4.25C6.77065 4.25 6.07118 4.53973 5.55546 5.05546C5.03973 5.57118 4.75 6.27065 4.75 7C4.75 7.72935 5.03973 8.42882 5.55546 8.94454C6.07118 9.46027 6.77065 9.75 7.5 9.75ZM7.5 6.125C7.98438 6.125 8.375 6.51562 8.375 7C8.375 7.48438 7.98438 7.875 7.5 7.875C7.01562 7.875 6.625 7.48438 6.625 7C6.625 6.51562 7.01562 6.125 7.5 6.125Z" fill="black" fill-opacity="0.3"/>
<rect x="18" y="15" width="16" height="16" rx="8" fill="#022F8E"/>
<path d="M30.6666 23.6654H26.6666V27.6654H25.3333V23.6654H21.3333V22.332H25.3333V18.332H26.6666V22.332H30.6666V23.6654Z" fill="white"/>
</svg>
