<svg width="52" height="64" viewBox="0 0 52 64" fill="none" xmlns="http://www.w3.org/2000/svg">
<path d="M32 2H8C6.4087 2 4.88258 2.63214 3.75736 3.75736C2.63214 4.88258 2 6.4087 2 8V56C2 57.5913 2.63214 59.1174 3.75736 60.2426C4.88258 61.3679 6.4087 62 8 62H44C45.5913 62 47.1174 61.3679 48.2426 60.2426C49.3679 59.1174 50 57.5913 50 56V20L32 2Z" fill="#022F8E" fill-opacity="0.4"/>
<path d="M32 2V20H50" fill="#022F8E" fill-opacity="0.4"/>
<path d="M20 23H14H20Z" fill="#022F8E" fill-opacity="0.4"/>
<path d="M32 2H8C6.4087 2 4.88258 2.63214 3.75736 3.75736C2.63214 4.88258 2 6.4087 2 8V56C2 57.5913 2.63214 59.1174 3.75736 60.2426C4.88258 61.3679 6.4087 62 8 62H44C45.5913 62 47.1174 61.3679 48.2426 60.2426C49.3679 59.1174 50 57.5913 50 56V20M32 2L50 20M32 2V20H50M38 35H14M38 47H14M20 23H14" stroke="#FDFEFF" stroke-width="3" stroke-linecap="round" stroke-linejoin="round"/>
</svg>
