<svg width="73" height="72" viewBox="0 0 73 72" fill="none" xmlns="http://www.w3.org/2000/svg">
<path d="M54.25 9C57.4326 9 60.4848 10.2643 62.7353 12.5147C64.9857 14.7652 66.25 17.8174 66.25 21V45C66.25 48.1826 64.9857 51.2348 62.7353 53.4853C60.4848 55.7357 57.4326 57 54.25 57H40.078L25.792 65.571C25.3618 65.8292 24.8736 65.9753 24.3723 65.9961C23.871 66.0168 23.3725 65.9115 22.9224 65.6897C22.4723 65.468 22.085 65.1369 21.796 64.7267C21.507 64.3166 21.3254 63.8405 21.268 63.342L21.25 63V57H18.25C15.1713 57 12.2103 55.8167 9.97956 53.6948C7.74881 51.573 6.41894 48.6749 6.265 45.6L6.25 45V21C6.25 17.8174 7.51428 14.7652 9.76472 12.5147C12.0152 10.2643 15.0674 9 18.25 9H54.25ZM45.85 36.858C45.2819 36.3011 44.5158 35.9927 43.7203 36.0006C42.9248 36.0085 42.165 36.332 41.608 36.9C40.9097 37.613 40.076 38.1794 39.156 38.5661C38.236 38.9528 37.248 39.152 36.25 39.152C35.252 39.152 34.264 38.9528 33.344 38.5661C32.424 38.1794 31.5903 37.613 30.892 36.9C30.3322 36.3451 29.5765 36.0328 28.7883 36.0306C28 36.0284 27.2426 36.3366 26.6798 36.8884C26.1169 37.4402 25.7939 38.1914 25.7804 38.9795C25.767 39.7676 26.0643 40.5293 26.608 41.1C27.8649 42.3826 29.3651 43.4016 31.0208 44.0972C32.6764 44.7928 34.4542 45.1511 36.25 45.1511C38.0458 45.1511 39.8236 44.7928 41.4792 44.0972C43.1349 43.4016 44.6351 42.3826 45.892 41.1C46.4489 40.5319 46.7573 39.7658 46.7494 38.9703C46.7415 38.1748 46.418 37.415 45.85 36.858ZM28.78 24H28.75C27.9544 24 27.1913 24.3161 26.6287 24.8787C26.0661 25.4413 25.75 26.2044 25.75 27C25.75 27.7956 26.0661 28.5587 26.6287 29.1213C27.1913 29.6839 27.9544 30 28.75 30H28.78C29.5756 30 30.3387 29.6839 30.9013 29.1213C31.4639 28.5587 31.78 27.7956 31.78 27C31.78 26.2044 31.4639 25.4413 30.9013 24.8787C30.3387 24.3161 29.5756 24 28.78 24ZM43.78 24H43.75C42.9543 24 42.1913 24.3161 41.6287 24.8787C41.0661 25.4413 40.75 26.2044 40.75 27C40.75 27.7956 41.0661 28.5587 41.6287 29.1213C42.1913 29.6839 42.9543 30 43.75 30H43.78C44.5756 30 45.3387 29.6839 45.9013 29.1213C46.4639 28.5587 46.78 27.7956 46.78 27C46.78 26.2044 46.4639 25.4413 45.9013 24.8787C45.3387 24.3161 44.5756 24 43.78 24Z" fill="#022F8E"/>
</svg>
