<svg width="21" height="20" viewBox="0 0 21 20" fill="none" xmlns="http://www.w3.org/2000/svg">
<g clip-path="url(#clip0_1115_5456)">
<path d="M15.4999 1.97777C15.4999 1.86349 15.4773 1.75033 15.4334 1.64482C15.3895 1.53931 15.3252 1.44352 15.2441 1.36297C15.1631 1.28242 15.0669 1.2187 14.9611 1.17547C14.8553 1.13225 14.742 1.11037 14.6277 1.1111H3.59439C3.48011 1.11037 3.36682 1.13225 3.26102 1.17547C3.15523 1.2187 3.05904 1.28242 2.97797 1.36297C2.8969 1.44352 2.83257 1.53931 2.78867 1.64482C2.74477 1.75033 2.72217 1.86349 2.72217 1.97777V15.8C2.72217 15.9143 2.74477 16.0274 2.78867 16.1329C2.83257 16.2385 2.8969 16.3342 2.97797 16.4148C3.05904 16.4953 3.15523 16.5591 3.26102 16.6023C3.36682 16.6455 3.48011 16.6674 3.59439 16.6667H3.88328V2.2611H15.4999V1.97777Z" fill="white"/>
<path d="M16.8889 3.33325H5.77779C5.31755 3.33325 4.94446 3.70635 4.94446 4.16659V18.0555C4.94446 18.5157 5.31755 18.8888 5.77779 18.8888H16.8889C17.3491 18.8888 17.7222 18.5157 17.7222 18.0555V4.16659C17.7222 3.70635 17.3491 3.33325 16.8889 3.33325Z" fill="white"/>
</g>
<defs>
<clipPath id="clip0_1115_5456">
<rect width="20" height="20" fill="white" transform="translate(0.5)"/>
</clipPath>
</defs>
</svg>
