<svg width="32" height="33" viewBox="0 0 32 33" fill="none" xmlns="http://www.w3.org/2000/svg">
<path d="M16 29.9616C23.3638 29.9616 29.3333 23.9921 29.3333 16.6283C29.3333 9.26446 23.3638 3.29492 16 3.29492C8.63619 3.29492 2.66666 9.26446 2.66666 16.6283C2.66666 23.9921 8.63619 29.9616 16 29.9616Z" fill="#022F8E"/>
<path d="M16 8.62826V16.6283L21.3333 19.2949" fill="#022F8E"/>
<path d="M16 8.62826V16.6283L21.3333 19.2949M29.3333 16.6283C29.3333 23.9921 23.3638 29.9616 16 29.9616C8.63619 29.9616 2.66666 23.9921 2.66666 16.6283C2.66666 9.26446 8.63619 3.29492 16 3.29492C23.3638 3.29492 29.3333 9.26446 29.3333 16.6283Z" stroke="white" stroke-width="2" stroke-linecap="round" stroke-linejoin="round"/>
</svg>
