<svg width="14" height="14" viewBox="0 0 14 14" fill="none" xmlns="http://www.w3.org/2000/svg">
<path d="M4.38201 7.25692L1.80801 4.68292C0.794677 5.78758 0.410677 6.89425 0.40401 6.91692L0.333344 7.12758L0.403344 7.33825C0.41801 7.38292 1.94734 11.7943 7.03601 11.7943C7.65534 11.7943 8.21934 11.7263 8.73734 11.6123L6.90668 9.78158C6.24753 9.74927 5.62398 9.47291 5.15733 9.00626C4.69069 8.53962 4.41432 7.91606 4.38201 7.25692ZM7.03601 2.46092C5.79934 2.46092 4.78601 2.73025 3.94134 3.12625L1.47134 0.65625L0.528677 1.59892L12.5287 13.5989L13.4713 12.6562L11.2727 10.4576C13.0313 9.15558 13.6587 7.36625 13.668 7.33825L13.738 7.12758L13.668 6.91692C13.6533 6.87225 12.1247 2.46092 7.03601 2.46092ZM8.30668 7.49158C8.43134 7.04025 8.32534 6.53225 7.97868 6.18492C7.63201 5.83758 7.12334 5.73225 6.67201 5.85692L5.66668 4.85158C6.07865 4.59824 6.55237 4.46309 7.03601 4.46092C8.50668 4.46092 9.70268 5.65692 9.70268 7.12758C9.7007 7.61113 9.56528 8.08475 9.31134 8.49625L8.30668 7.49158Z" fill="white"/>
</svg>
