<svg width="36" height="36" viewBox="0 0 36 36" fill="none" xmlns="http://www.w3.org/2000/svg">
<path d="M21.231 18.693H27.3465V17.193H21.231V18.693ZM21.231 14.538H27.3465V13.038H21.231V14.538ZM8.6535 22.962H18.5775V22.713C18.5775 21.838 18.1375 21.1605 17.2575 20.6805C16.3775 20.2005 15.1635 19.9605 13.6155 19.9605C12.0675 19.9605 10.853 20.2005 9.972 20.6805C9.091 21.1605 8.6515 21.838 8.6535 22.713V22.962ZM13.6155 17.538C14.2485 17.538 14.7815 17.3215 15.2145 16.8885C15.6485 16.4545 15.8655 15.921 15.8655 15.288C15.8655 14.655 15.6485 14.122 15.2145 13.689C14.7805 13.256 14.2475 13.039 13.6155 13.038C12.9835 13.037 12.4505 13.254 12.0165 13.689C11.5825 14.124 11.3655 14.657 11.3655 15.288C11.3655 15.919 11.5825 16.4525 12.0165 16.8885C12.4505 17.3245 12.9835 17.541 13.6155 17.538ZM4.5 28.5V7.5H31.5V28.5H4.5Z" fill="black"/>
</svg>
