<svg width="84" height="84" viewBox="0 0 84 84" fill="none" xmlns="http://www.w3.org/2000/svg">
<path d="M84 42C84 65.196 65.196 84 42 84C18.804 84 0 65.196 0 42C0 18.804 18.804 0 42 0C65.196 0 84 18.804 84 42ZM6.72 42C6.72 61.4846 22.5154 77.28 42 77.28C61.4846 77.28 77.28 61.4846 77.28 42C77.28 22.5154 61.4846 6.72 42 6.72C22.5154 6.72 6.72 22.5154 6.72 42Z" fill="#022F8E" fill-opacity="0.05"/>
<path d="M23.7709 76.0436C22.8889 77.6907 23.5048 79.7547 25.2176 80.5014C33.2951 84.0225 42.3065 84.9251 50.9706 83.0308C60.7401 80.8949 69.427 75.3432 75.4687 67.3742C81.5103 59.4052 84.5103 49.5419 83.929 39.5585C83.4134 30.7048 80.1112 22.2718 74.5398 15.4451C73.3585 13.9975 71.2048 13.9618 69.857 15.2558C68.5091 16.5497 68.4801 18.6823 69.639 20.1479C74.1063 25.7982 76.7524 32.7071 77.1742 39.9518C77.6619 48.3269 75.1452 56.6012 70.0769 63.2864C65.0085 69.9716 57.7211 74.6289 49.5254 76.4208C42.4358 77.9708 35.0691 77.2885 28.4225 74.5127C26.6984 73.7927 24.6529 74.3964 23.7709 76.0436Z" fill="#022F8E"/>
<path d="M24.7434 39.9117C24.6393 40.5467 24.3791 41.0776 23.9627 41.5044C23.5567 41.9208 23.0571 42.2227 22.4637 42.41C22.9634 42.5141 23.3641 42.764 23.666 43.1595C23.9783 43.5551 24.1345 44.0235 24.1345 44.5648C24.1345 44.7106 24.1188 44.8719 24.0876 45.0489C23.9419 45.9337 23.4943 46.6467 22.7448 47.188C22.0057 47.7293 21.0792 48 19.9654 48H15.2654L17.2016 37.1011H21.6986C22.6875 37.1011 23.4474 37.3093 23.9783 37.7257C24.5196 38.1421 24.7903 38.699 24.7903 39.3964C24.7903 39.563 24.7747 39.7347 24.7434 39.9117ZM22.4637 40.2396C22.4741 40.1772 22.4793 40.0835 22.4793 39.9586C22.4793 39.5942 22.3596 39.3132 22.1202 39.1154C21.8808 38.9176 21.532 38.8187 21.074 38.8187H19.091L18.5913 41.6293H20.59C21.1 41.6293 21.5216 41.5096 21.8547 41.2702C22.1879 41.0203 22.3908 40.6768 22.4637 40.2396ZM21.9172 44.7834C21.938 44.6377 21.9484 44.5336 21.9484 44.4711C21.9484 44.0964 21.8131 43.8049 21.5425 43.5967C21.2822 43.3781 20.9179 43.2688 20.4494 43.2688H18.2947L17.7794 46.2668H19.981C20.5119 46.2668 20.9491 46.1367 21.2926 45.8764C21.6361 45.6162 21.8443 45.2519 21.9172 44.7834ZM50.4912 42.5037L54.145 48H51.3656L48.2739 43.1439L47.4151 48H45.2135L47.1497 37.1011H49.3357L48.4769 41.9884L53.3018 37.1011H55.9406L50.4912 42.5037ZM59.6894 37.1011L57.7689 48H55.5672L57.5034 37.1011H59.6894ZM69.2661 37.1011L68.9538 38.8187H66.0651L64.4412 48H62.2396L63.8635 38.8187H60.9592L61.2715 37.1011H69.2661Z" fill="black"/>
<path d="M29.1713 48.1405C28.4323 48.1405 27.7764 47.9896 27.2039 47.6877C26.6418 47.3858 26.2046 46.959 25.8923 46.4073C25.58 45.8556 25.4239 45.2206 25.4239 44.5024C25.4239 43.5239 25.6529 42.6338 26.1109 41.8323C26.5793 41.0203 27.2143 40.3801 28.0159 39.9117C28.8278 39.4433 29.7283 39.2091 30.7172 39.2091C31.4563 39.2091 32.1121 39.3652 32.6846 39.6775C33.2675 39.9794 33.7151 40.4062 34.0274 40.9579C34.3501 41.5096 34.5115 42.1446 34.5115 42.8628C34.5115 43.8518 34.2773 44.747 33.8088 45.5485C33.3404 46.3501 32.695 46.9851 31.8726 47.4535C31.0607 47.9115 30.1603 48.1405 29.1713 48.1405ZM29.468 46.2668C29.9885 46.2668 30.4621 46.1159 30.8889 45.814C31.3157 45.5121 31.6488 45.1113 31.8883 44.6117C32.1277 44.112 32.2474 43.5863 32.2474 43.0346C32.2474 42.41 32.0704 41.9312 31.7165 41.5981C31.373 41.2546 30.9358 41.0828 30.4049 41.0828C29.874 41.0828 29.4004 41.2337 28.984 41.5356C28.578 41.8375 28.2605 42.2435 28.0315 42.7535C27.8025 43.2532 27.688 43.7841 27.688 44.3462C27.688 44.9604 27.8493 45.434 28.172 45.7671C28.5051 46.1002 28.9371 46.2668 29.468 46.2668Z" fill="#3A49F9"/>
<path d="M39.1286 48.1405C38.3895 48.1405 37.7337 47.9896 37.1612 47.6877C36.5991 47.3858 36.1619 46.959 35.8496 46.4073C35.5373 45.8556 35.3811 45.2206 35.3811 44.5024C35.3811 43.5239 35.6101 42.6338 36.0682 41.8323C36.5366 41.0203 37.1716 40.3801 37.9731 39.9117C38.7851 39.4433 39.6855 39.2091 40.6744 39.2091C41.4135 39.2091 42.0693 39.3652 42.6419 39.6775C43.2248 39.9794 43.6724 40.4062 43.9847 40.9579C44.3074 41.5096 44.4688 42.1446 44.4688 42.8628C44.4688 43.8518 44.2345 44.747 43.7661 45.5485C43.2977 46.3501 42.6523 46.9851 41.8299 47.4535C41.018 47.9115 40.1175 48.1405 39.1286 48.1405ZM39.4253 46.2668C39.9458 46.2668 40.4194 46.1159 40.8462 45.814C41.273 45.5121 41.6061 45.1113 41.8455 44.6117C42.0849 44.112 42.2047 43.5863 42.2047 43.0346C42.2047 42.41 42.0277 41.9312 41.6738 41.5981C41.3302 41.2546 40.893 41.0828 40.3621 41.0828C39.8313 41.0828 39.3576 41.2337 38.9412 41.5356C38.5353 41.8375 38.2178 42.2435 37.9888 42.7535C37.7597 43.2532 37.6452 43.7841 37.6452 44.3462C37.6452 44.9604 37.8066 45.434 38.1293 45.7671C38.4624 46.1002 38.8944 46.2668 39.4253 46.2668Z" fill="#1B59F8"/>
</svg>
