<svg width="45" height="32" viewBox="0 0 45 32" fill="none" xmlns="http://www.w3.org/2000/svg">
<path d="M16.4141 3.65234H28.5814V27.9772H16.4141V3.65234Z" fill="#FF5F00"/>
<path d="M17.189 15.8144C17.189 10.8722 19.2748 6.48844 22.4807 3.6519C20.1247 1.58906 17.1505 0.342773 13.9058 0.342773C6.21883 0.342773 0 7.26193 0 15.8144C0 24.3667 6.21883 31.286 13.9057 31.286C17.1503 31.286 20.1245 30.0398 22.4807 27.9767C19.2748 25.1833 17.189 20.7567 17.189 15.8144Z" fill="#EB001B"/>
<path d="M45.0002 15.8144C45.0002 24.3667 38.7814 31.286 31.0946 31.286C27.85 31.286 24.8758 30.0398 22.5195 27.9767C25.7642 25.1404 27.8114 20.7567 27.8114 15.8144C27.8114 10.8722 25.7255 6.48844 22.5195 3.6519C24.8756 1.58906 27.85 0.342773 31.0946 0.342773C38.7814 0.342773 45.0004 7.305 45.0004 15.8144H45.0002Z" fill="#F79E1B"/>
</svg>
