<svg width="32" height="33" viewBox="0 0 32 33" fill="none" xmlns="http://www.w3.org/2000/svg">
<path d="M5.33333 12.6279H7.99999V4.62793H10.6667L15.2267 12.6279H21.3333V4.62793H24V12.6279H26.6667V15.2946H24V17.9613H26.6667V20.6279H24V28.6279H21.3333L16.76 20.6279H10.6667V28.6279H7.99999V20.6279H5.33333V17.9613H7.99999V15.2946H5.33333V12.6279ZM10.6667 12.6279H12.1733L10.6667 10.0013V12.6279ZM10.6667 15.2946V17.9613H15.2267L13.7067 15.2946H10.6667ZM21.3333 23.2946V20.6279H19.8L21.3333 23.2946ZM16.7467 15.2946L18.28 17.9613H21.3333V15.2946H16.7467Z" fill="#022F8E"/>
</svg>
