<svg width="32" height="33" viewBox="0 0 32 33" fill="none" xmlns="http://www.w3.org/2000/svg">
<path d="M22.6667 4.62793H9.33332C7.86056 4.62793 6.66666 5.82184 6.66666 7.2946V25.9613C6.66666 27.434 7.86056 28.6279 9.33332 28.6279H22.6667C24.1394 28.6279 25.3333 27.434 25.3333 25.9613V7.2946C25.3333 5.82184 24.1394 4.62793 22.6667 4.62793Z" fill="#022F8E"/>
<path d="M12.6667 10.6279H19.3333M12.6667 14.6279H16.6667M12.6667 18.6279H18M12.6667 22.6279H16.6667" stroke="white" stroke-linecap="round"/>
<path d="M10.6666 10.6276C10.6666 10.2594 10.3682 9.96094 9.99998 9.96094C9.63179 9.96094 9.33331 10.2594 9.33331 10.6276C9.33331 10.9958 9.63179 11.2943 9.99998 11.2943C10.3682 11.2943 10.6666 10.9958 10.6666 10.6276Z" fill="white"/>
<path d="M10.6666 14.6276C10.6666 14.2594 10.3682 13.9609 9.99998 13.9609C9.63179 13.9609 9.33331 14.2594 9.33331 14.6276C9.33331 14.9958 9.63179 15.2943 9.99998 15.2943C10.3682 15.2943 10.6666 14.9958 10.6666 14.6276Z" fill="white"/>
<path d="M10.6666 18.6276C10.6666 18.2594 10.3682 17.9609 9.99998 17.9609C9.63179 17.9609 9.33331 18.2594 9.33331 18.6276C9.33331 18.9958 9.63179 19.2943 9.99998 19.2943C10.3682 19.2943 10.6666 18.9958 10.6666 18.6276Z" fill="white"/>
<path d="M10.6666 22.6276C10.6666 22.2594 10.3682 21.9609 9.99998 21.9609C9.63179 21.9609 9.33331 22.2594 9.33331 22.6276C9.33331 22.9958 9.63179 23.2943 9.99998 23.2943C10.3682 23.2943 10.6666 22.9958 10.6666 22.6276Z" fill="white"/>
</svg>
