<svg width="48" height="29" viewBox="0 0 48 29" fill="none" xmlns="http://www.w3.org/2000/svg">
<path d="M44.444 22.9239L43.994 20.6739H38.966L38.166 22.9079L34.136 22.9159C36.7267 16.6906 38.6493 12.0793 39.904 9.08193C40.232 8.29793 40.814 7.89793 41.672 7.90393C42.328 7.90926 43.3987 7.90993 44.884 7.90593L48 22.9179L44.444 22.9239ZM40.096 17.5919H43.338L42.128 11.9519L40.096 17.5919ZM14.124 7.90193L18.176 7.90593L11.912 22.9259L7.81 22.9219C6.7785 18.9546 5.75983 14.9839 4.754 11.0099C4.554 10.2179 4.158 9.66393 3.396 9.40193C2.71467 9.1686 1.58267 8.80793 0 8.31993V7.90593H6.474C7.594 7.90593 8.248 8.44793 8.458 9.55993C8.67 10.6746 9.20333 13.5106 10.058 18.0679L14.124 7.90193ZM23.744 7.90593L20.542 22.9239L16.684 22.9179L19.88 7.90193L23.744 7.90593ZM31.564 7.62793C32.718 7.62793 34.172 7.98793 35.008 8.31993L34.332 11.4319C33.576 11.1279 32.332 10.7179 31.286 10.7319C29.766 10.7579 28.826 11.3959 28.826 12.0079C28.826 13.0039 30.458 13.5059 32.138 14.5939C34.054 15.8339 34.308 16.9479 34.284 18.1599C34.258 20.6699 32.138 23.1479 27.666 23.1479C25.626 23.1179 24.89 22.9479 23.226 22.3559L23.93 19.1079C25.624 19.8159 26.342 20.0419 27.79 20.0419C29.116 20.0419 30.254 19.5059 30.264 18.5719C30.272 17.9079 29.864 17.5779 28.376 16.7579C26.888 15.9379 24.8 14.7999 24.828 12.5139C24.862 9.58993 27.632 7.62793 31.564 7.62793Z" fill="#F4F4F4"/>
</svg>
