<svg width="32" height="33" viewBox="0 0 32 33" fill="none" xmlns="http://www.w3.org/2000/svg">
<path d="M16 7.62793H14V2.62793C14 2.36271 14.1054 2.10836 14.2929 1.92082C14.4804 1.73329 14.7348 1.62793 15 1.62793C15.2652 1.62793 15.5196 1.73329 15.7071 1.92082C15.8946 2.10836 16 2.36271 16 2.62793V7.62793ZM24 16.0804V9.62793C24 9.0975 23.7893 8.58879 23.4142 8.21372C23.0391 7.83864 22.5304 7.62793 22 7.62793H16V15.2142L18.2925 12.9204C18.3854 12.8275 18.4957 12.7538 18.6171 12.7035C18.7385 12.6533 18.8686 12.6274 19 12.6274C19.1314 12.6274 19.2615 12.6533 19.3829 12.7035C19.5043 12.7538 19.6146 12.8275 19.7075 12.9204C19.8004 13.0133 19.8741 13.1236 19.9244 13.245C19.9747 13.3664 20.0006 13.4965 20.0006 13.6279C20.0006 13.7593 19.9747 13.8894 19.9244 14.0108C19.8741 14.1322 19.8004 14.2425 19.7075 14.3354L15.7075 18.3354C15.6146 18.4284 15.5043 18.5022 15.3829 18.5525C15.2615 18.6028 15.1314 18.6287 15 18.6287C14.8686 18.6287 14.7385 18.6028 14.6171 18.5525C14.4957 18.5022 14.3854 18.4284 14.2925 18.3354L10.2925 14.3354C10.1049 14.1478 9.99944 13.8933 9.99944 13.6279C9.99944 13.3626 10.1049 13.1081 10.2925 12.9204C10.4801 12.7328 10.7346 12.6274 11 12.6274C11.2654 12.6274 11.5199 12.7328 11.7075 12.9204L14 15.2142V7.62793H8C7.46957 7.62793 6.96086 7.83864 6.58579 8.21372C6.21071 8.58879 6 9.0975 6 9.62793V25.6279C6 25.8931 6.10536 26.1475 6.29289 26.335C6.48043 26.5226 6.73478 26.6279 7 26.6279H16.3375C16.3775 26.7117 16.4213 26.7954 16.4688 26.8779L16.4988 26.9254L19.2812 31.1754C19.4265 31.3974 19.6539 31.5526 19.9135 31.6068C20.1731 31.6611 20.4437 31.61 20.6656 31.4648C20.8876 31.3196 21.0428 31.0922 21.097 30.8325C21.1513 30.5729 21.1002 30.3024 20.955 30.0804L18.1887 25.8567C17.9927 25.5104 17.9421 25.1004 18.0483 24.7169C18.1545 24.3334 18.4087 24.0078 18.755 23.8117C19.1013 23.6156 19.5113 23.5651 19.8948 23.6713C20.2783 23.7775 20.6039 24.0317 20.8 24.3779C20.8087 24.3942 20.8188 24.4104 20.8288 24.4254L22.1637 26.4642C22.2818 26.6441 22.4547 26.7812 22.6568 26.8551C22.8589 26.929 23.0795 26.9356 23.2857 26.8741C23.492 26.8127 23.6729 26.6863 23.8015 26.5138C23.9302 26.3413 23.9998 26.1319 24 25.9167V18.6279C24.9426 19.5004 25.6954 20.5577 26.2115 21.7338C26.7276 22.91 26.996 24.1798 27 25.4642V30.6279C27 30.8931 27.1054 31.1475 27.2929 31.335C27.4804 31.5226 27.7348 31.6279 28 31.6279C28.2652 31.6279 28.5196 31.5226 28.7071 31.335C28.8946 31.1475 29 30.8931 29 30.6279V25.4592C28.9943 23.6067 28.5358 21.7838 27.6643 20.1491C26.7928 18.5144 25.5349 17.1176 24 16.0804Z" fill="#022F8E"/>
</svg>
